<svg width="75" height="73" viewBox="0 0 75 73" fill="none" xmlns="http://www.w3.org/2000/svg">
<mask id="path-1-outside-1_6_184" maskUnits="userSpaceOnUse" x="-0.741684" y="0" width="75" height="73" fill="black">
<rect fill="white" x="-0.741684" width="75" height="73"/>
<path d="M26.5425 4L55.315 34.332V4H70.2583V69H55.315V52.5908L46.6079 43.499L25.8003 69H8.25832L36.7339 32.96L9.83644 4H26.5425Z"/>
</mask>
<g clip-path="url(#paint0_angular_6_184_clip_path)" data-figma-skip-parse="true" mask="url(#path-1-outside-1_6_184)"><g transform="matrix(-3.65218e-09 0.109318 -0.0358438 -1.43966e-08 39.2583 -7.81818)"><foreignObject x="-976.46" y="-976.46" width="1952.92" height="1952.92"><div xmlns="http://www.w3.org/1999/xhtml" style="background:conic-gradient(from 90deg,rgba(7, 221, 199, 1) 0deg,rgba(131, 220, 103, 1) 128.077deg,rgba(206, 88, 242, 1) 264.808deg,rgba(8, 221, 200, 1) 360deg);height:100%;width:100%;opacity:1"></div></foreignObject></g></g><path d="M26.5425 4L29.4445 1.24716L28.2615 0H26.5425V4ZM55.315 34.332L52.4129 37.0849L59.315 44.361V34.332H55.315ZM55.315 4V0H51.315V4H55.315ZM70.2583 4H74.2583V0H70.2583V4ZM70.2583 69V73H74.2583V69H70.2583ZM55.315 69H51.315V73H55.315V69ZM55.315 52.5908H59.315V50.9844L58.2039 49.8242L55.315 52.5908ZM46.6079 43.499L49.4968 40.7324L46.3683 37.4656L43.5087 40.9702L46.6079 43.499ZM25.8003 69V73H27.6991L28.8995 71.5288L25.8003 69ZM8.25832 69L5.11976 66.5202L-1.90735e-06 73H8.25832V69ZM36.7339 32.96L39.8725 35.4398L41.9978 32.7498L39.6648 30.2378L36.7339 32.96ZM9.83644 4V0H0.662183L6.90557 6.72213L9.83644 4ZM26.5425 4L23.6404 6.75284L52.4129 37.0849L55.315 34.332L58.217 31.5792L29.4445 1.24716L26.5425 4ZM55.315 34.332H59.315V4H55.315H51.315V34.332H55.315ZM55.315 4V8H70.2583V4V0H55.315V4ZM70.2583 4H66.2583V69H70.2583H74.2583V4H70.2583ZM70.2583 69V65H55.315V69V73H70.2583V69ZM55.315 69H59.315V52.5908H55.315H51.315V69H55.315ZM55.315 52.5908L58.2039 49.8242L49.4968 40.7324L46.6079 43.499L43.719 46.2657L52.4261 55.3575L55.315 52.5908ZM46.6079 43.499L43.5087 40.9702L22.7011 66.4712L25.8003 69L28.8995 71.5288L49.7071 46.0278L46.6079 43.499ZM25.8003 69V65H8.25832V69V73H25.8003V69ZM8.25832 69L11.3969 71.4798L39.8725 35.4398L36.7339 32.96L33.5953 30.4802L5.11976 66.5202L8.25832 69ZM36.7339 32.96L39.6648 30.2378L12.7673 1.27787L9.83644 4L6.90557 6.72213L33.803 35.6821L36.7339 32.96ZM9.83644 4V8H26.5425V4V0H9.83644V4Z" data-figma-gradient-fill="{&#34;type&#34;:&#34;GRADIENT_ANGULAR&#34;,&#34;stops&#34;:[{&#34;color&#34;:{&#34;r&#34;:0.029896134510636330,&#34;g&#34;:0.86752551794052124,&#34;b&#34;:0.78376257419586182,&#34;a&#34;:1.0},&#34;position&#34;:0.0},{&#34;color&#34;:{&#34;r&#34;:0.51414126157760620,&#34;g&#34;:0.86483168601989746,&#34;b&#34;:0.40740939974784851,&#34;a&#34;:1.0},&#34;position&#34;:0.35576921701431274},{&#34;color&#34;:{&#34;r&#34;:0.81043034791946411,&#34;g&#34;:0.34731531143188477,&#34;b&#34;:0.95137846469879150,&#34;a&#34;:1.0},&#34;position&#34;:0.73557692766189575},{&#34;color&#34;:{&#34;r&#34;:0.031372550874948502,&#34;g&#34;:0.86666667461395264,&#34;b&#34;:0.78431373834609985,&#34;a&#34;:1.0},&#34;position&#34;:1.0}],&#34;stopsVar&#34;:[{&#34;color&#34;:{&#34;r&#34;:0.029896134510636330,&#34;g&#34;:0.86752551794052124,&#34;b&#34;:0.78376257419586182,&#34;a&#34;:1.0},&#34;position&#34;:0.0},{&#34;color&#34;:{&#34;r&#34;:0.51414126157760620,&#34;g&#34;:0.86483168601989746,&#34;b&#34;:0.40740939974784851,&#34;a&#34;:1.0},&#34;position&#34;:0.35576921701431274},{&#34;color&#34;:{&#34;r&#34;:0.81043034791946411,&#34;g&#34;:0.34731531143188477,&#34;b&#34;:0.95137846469879150,&#34;a&#34;:1.0},&#34;position&#34;:0.73557692766189575},{&#34;color&#34;:{&#34;r&#34;:0.031372550874948502,&#34;g&#34;:0.86666667461395264,&#34;b&#34;:0.78431373834609985,&#34;a&#34;:1.0},&#34;position&#34;:1.0}],&#34;transform&#34;:{&#34;m00&#34;:-7.3043624979618471e-06,&#34;m01&#34;:-71.687515258789062,&#34;m02&#34;:75.102073669433594,&#34;m10&#34;:218.63638305664062,&#34;m11&#34;:-2.8793117962777615e-05,&#34;m12&#34;:-117.13635253906250},&#34;opacity&#34;:1.0,&#34;blendMode&#34;:&#34;NORMAL&#34;,&#34;visible&#34;:true}" mask="url(#path-1-outside-1_6_184)"/>
<defs>
<clipPath id="paint0_angular_6_184_clip_path"><path d="M26.5425 4L29.4445 1.24716L28.2615 0H26.5425V4ZM55.315 34.332L52.4129 37.0849L59.315 44.361V34.332H55.315ZM55.315 4V0H51.315V4H55.315ZM70.2583 4H74.2583V0H70.2583V4ZM70.2583 69V73H74.2583V69H70.2583ZM55.315 69H51.315V73H55.315V69ZM55.315 52.5908H59.315V50.9844L58.2039 49.8242L55.315 52.5908ZM46.6079 43.499L49.4968 40.7324L46.3683 37.4656L43.5087 40.9702L46.6079 43.499ZM25.8003 69V73H27.6991L28.8995 71.5288L25.8003 69ZM8.25832 69L5.11976 66.5202L-1.90735e-06 73H8.25832V69ZM36.7339 32.96L39.8725 35.4398L41.9978 32.7498L39.6648 30.2378L36.7339 32.96ZM9.83644 4V0H0.662183L6.90557 6.72213L9.83644 4ZM26.5425 4L23.6404 6.75284L52.4129 37.0849L55.315 34.332L58.217 31.5792L29.4445 1.24716L26.5425 4ZM55.315 34.332H59.315V4H55.315H51.315V34.332H55.315ZM55.315 4V8H70.2583V4V0H55.315V4ZM70.2583 4H66.2583V69H70.2583H74.2583V4H70.2583ZM70.2583 69V65H55.315V69V73H70.2583V69ZM55.315 69H59.315V52.5908H55.315H51.315V69H55.315ZM55.315 52.5908L58.2039 49.8242L49.4968 40.7324L46.6079 43.499L43.719 46.2657L52.4261 55.3575L55.315 52.5908ZM46.6079 43.499L43.5087 40.9702L22.7011 66.4712L25.8003 69L28.8995 71.5288L49.7071 46.0278L46.6079 43.499ZM25.8003 69V65H8.25832V69V73H25.8003V69ZM8.25832 69L11.3969 71.4798L39.8725 35.4398L36.7339 32.96L33.5953 30.4802L5.11976 66.5202L8.25832 69ZM36.7339 32.96L39.6648 30.2378L12.7673 1.27787L9.83644 4L6.90557 6.72213L33.803 35.6821L36.7339 32.96ZM9.83644 4V8H26.5425V4V0H9.83644V4Z" mask="url(#path-1-outside-1_6_184)"/></clipPath></defs>
</svg>
