<svg width="831" height="730" viewBox="0 0 831 730" fill="none" xmlns="http://www.w3.org/2000/svg">
<g clip-path="url(#paint0_angular_58_182_clip_path)" data-figma-skip-parse="true"><g transform="matrix(0.0973086 0.102443 -0.163861 0.18031 419.011 374.359)"><foreignObject x="-3987.37" y="-3987.37" width="7974.74" height="7974.74"><div xmlns="http://www.w3.org/1999/xhtml" style="background:conic-gradient(from 90deg,rgba(182, 208, 247, 1) 0deg,rgba(237, 244, 225, 1) 82.5deg,rgba(226, 193, 249, 1) 155.625deg,rgba(191, 209, 249, 1) 209.309deg,rgba(250, 252, 254, 1) 252.649deg,rgba(186, 228, 226, 1) 288.75deg,rgba(140, 107, 227, 1) 341.25deg,rgba(192, 214, 243, 1) 360deg);height:100%;width:100%;opacity:1"></div></foreignObject></g></g><path d="M335 138H646.373C653.957 94.2619 692.093 61 738 61C789.362 61 831 102.638 831 154C831 187.38 813.413 216.652 787 233.058V730H267V647.926C364.23 637.687 440 555.443 440 455.5C440 355.557 364.23 273.312 267 263.073V263H0V0H335V138Z" data-figma-gradient-fill="{&#34;type&#34;:&#34;GRADIENT_ANGULAR&#34;,&#34;stops&#34;:[{&#34;color&#34;:{&#34;r&#34;:0.71372550725936890,&#34;g&#34;:0.81568628549575806,&#34;b&#34;:0.96862745285034180,&#34;a&#34;:1.0},&#34;position&#34;:0.0},{&#34;color&#34;:{&#34;r&#34;:0.93304395675659180,&#34;g&#34;:0.95833331346511841,&#34;b&#34;:0.88246524333953857,&#34;a&#34;:1.0},&#34;position&#34;:0.22916667163372040},{&#34;color&#34;:{&#34;r&#34;:0.88627451658248901,&#34;g&#34;:0.75686275959014893,&#34;b&#34;:0.97647058963775635,&#34;a&#34;:1.0},&#34;position&#34;:0.43229165673255920},{&#34;color&#34;:{&#34;r&#34;:0.74901962280273438,&#34;g&#34;:0.81960785388946533,&#34;b&#34;:0.97647058963775635,&#34;a&#34;:1.0},&#34;position&#34;:0.58141487836837769},{&#34;color&#34;:{&#34;r&#34;:0.98039215803146362,&#34;g&#34;:0.98823529481887817,&#34;b&#34;:0.99607843160629272,&#34;a&#34;:1.0},&#34;position&#34;:0.70180279016494751},{&#34;color&#34;:{&#34;r&#34;:0.7294117808341980,&#34;g&#34;:0.89411765336990356,&#34;b&#34;:0.88627451658248901,&#34;a&#34;:1.0},&#34;position&#34;:0.80208331346511841},{&#34;color&#34;:{&#34;r&#34;:0.54901963472366333,&#34;g&#34;:0.41960784792900085,&#34;b&#34;:0.89019608497619629,&#34;a&#34;:1.0},&#34;position&#34;:0.94791668653488159},{&#34;color&#34;:{&#34;r&#34;:0.75360161066055298,&#34;g&#34;:0.84162211418151855,&#34;b&#34;:0.95296162366867065,&#34;a&#34;:1.0},&#34;position&#34;:1.0}],&#34;stopsVar&#34;:[],&#34;transform&#34;:{&#34;m00&#34;:194.61718750,&#34;m01&#34;:-327.72140502929688,&#34;m02&#34;:485.56338500976562,&#34;m10&#34;:204.88568115234375,&#34;m11&#34;:360.62011718750,&#34;m12&#34;:91.606155395507812},&#34;opacity&#34;:1.0,&#34;blendMode&#34;:&#34;NORMAL&#34;,&#34;visible&#34;:true}"/>
<path d="M335 138H646.373C653.957 94.2619 692.093 61 738 61C789.362 61 831 102.638 831 154C831 187.38 813.413 216.652 787 233.058V730H267V647.926C364.23 637.687 440 555.443 440 455.5C440 355.557 364.23 273.312 267 263.073V263H0V0H335V138Z" fill="#FFE32C" fill-opacity="0.2" style="mix-blend-mode:plus-darker"/>
<path fill-rule="evenodd" clip-rule="evenodd" d="M720.993 135.164C730.662 125.612 746.338 125.612 756.007 135.164L767.664 146.681C769.445 148.441 769.445 151.294 767.664 153.053L741.725 178.68C739.944 180.44 737.056 180.44 735.275 178.68L709.336 153.053C707.555 151.294 707.555 148.441 709.336 146.681L720.993 135.164ZM740.198 134.044C739.061 133.941 737.917 133.947 736.781 134.06L736.173 134.121C733.625 134.376 731.164 135.181 728.965 136.477C728.024 137.033 727.137 137.674 726.317 138.393L725.495 139.114C724.951 139.591 725.205 140.477 725.92 140.601L735.919 142.344C740.967 143.224 745.945 144.456 750.817 146.03L760.901 149.289C761.34 149.431 761.67 148.888 761.337 148.572L751.32 139.06L749.389 137.597C746.726 135.579 743.539 134.348 740.198 134.044Z" fill="#111111"/>
<defs>
<clipPath id="paint0_angular_58_182_clip_path"><path d="M335 138H646.373C653.957 94.2619 692.093 61 738 61C789.362 61 831 102.638 831 154C831 187.38 813.413 216.652 787 233.058V730H267V647.926C364.23 637.687 440 555.443 440 455.5C440 355.557 364.23 273.312 267 263.073V263H0V0H335V138Z"/></clipPath></defs>
</svg>
