<svg width="61" height="52" viewBox="0 0 61 52" fill="none" xmlns="http://www.w3.org/2000/svg">
<path fill-rule="evenodd" clip-rule="evenodd" d="M12.9934 7.16414C22.662 -2.38805 38.338 -2.38805 48.0067 7.16414L59.6643 18.6814C61.4453 20.441 61.4453 23.2939 59.6643 25.0535L33.7249 50.6803C31.9439 52.4399 29.0562 52.4399 27.2751 50.6803L1.33577 25.0535C-0.445274 23.2939 -0.445237 20.441 1.33577 18.6814L12.9934 7.16414ZM32.1976 6.04442C31.061 5.94134 29.917 5.94668 28.7814 6.06032L28.1729 6.1213C25.6247 6.37631 23.1641 7.18059 20.9649 8.4775C20.0237 9.03255 19.1372 9.67383 18.3174 10.3927L17.4945 11.1143C16.9511 11.5908 17.2046 12.4766 17.9202 12.6013L27.9186 14.3438C32.9667 15.2236 37.9454 16.4555 42.8173 18.0301L52.9014 21.2892C53.3402 21.431 53.6703 20.8881 53.3375 20.572L43.32 11.0596L41.3891 9.59664C38.7262 7.5791 35.5394 6.34753 32.1976 6.04442Z" fill="#111111"/>
</svg>
