<svg width="33" height="28" viewBox="0 0 33 28" fill="none" xmlns="http://www.w3.org/2000/svg">
<path fill-rule="evenodd" clip-rule="evenodd" d="M6.82602 3.80953C11.9054 -1.26984 20.1407 -1.26984 25.2201 3.80953L31.3444 9.93381C32.28 10.8695 32.2801 12.3865 31.3444 13.3222L17.7173 26.9492C16.7816 27.8849 15.2646 27.8849 14.3289 26.9492L0.701741 13.3222C-0.233923 12.3865 -0.233904 10.8695 0.701741 9.93381L6.82602 3.80953ZM16.9149 3.21411C16.3178 3.15929 15.7168 3.16214 15.1202 3.22257L14.8005 3.255C13.4619 3.3906 12.1692 3.81828 11.0138 4.50791C10.5194 4.80305 10.0537 5.14404 9.62298 5.52628L9.19067 5.91001C8.90516 6.1634 9.03836 6.63444 9.41429 6.70075L14.6669 7.62732C17.3189 8.09514 19.9345 8.75021 22.4939 9.58752L27.7916 11.3205C28.0221 11.3959 28.1955 11.1072 28.0207 10.9391L22.758 5.88093L21.7436 5.103C20.3447 4.03017 18.6705 3.37528 16.9149 3.21411Z" fill="#F7F7F7"/>
</svg>
