<svg width="92" height="36" viewBox="0 0 92 36" fill="none" xmlns="http://www.w3.org/2000/svg">
<path fill-rule="evenodd" clip-rule="evenodd" d="M6.82602 7.98409C11.9054 2.90472 20.1407 2.90472 25.2201 7.98409L31.3444 14.1084C32.28 15.044 32.2801 16.5611 31.3444 17.4967L17.7173 31.1238C16.7816 32.0595 15.2646 32.0595 14.3289 31.1238L0.701741 17.4967C-0.233923 16.5611 -0.233904 15.0441 0.701741 14.1084L6.82602 7.98409ZM16.9149 7.38867C16.3178 7.33385 15.7168 7.3367 15.1202 7.39713L14.8005 7.42956C13.4619 7.56516 12.1692 7.99284 11.0138 8.68247C10.5194 8.97762 10.0537 9.3186 9.62298 9.70084L9.19067 10.0846C8.90516 10.338 9.03836 10.809 9.41429 10.8753L14.6669 11.8019C17.3189 12.2697 19.9345 12.9248 22.4939 13.7621L27.7916 15.4951C28.0221 15.5705 28.1955 15.2818 28.0207 15.1137L22.758 10.0555L21.7436 9.27756C20.3447 8.20473 18.6705 7.54984 16.9149 7.38867Z" fill="#111111"/>
<path d="M88.9179 15.5679C88.5232 15.3226 88.1179 15.1199 87.7019 14.9599C87.2965 14.7999 86.9125 14.6879 86.5499 14.6239C86.1872 14.5492 85.8565 14.5119 85.5579 14.5119C85.0565 14.5119 84.6512 14.6079 84.3419 14.7999C84.0432 14.9919 83.8939 15.2746 83.8939 15.6479C83.8939 15.9892 84.0005 16.2666 84.2139 16.4799C84.4379 16.6932 84.7259 16.8692 85.0779 17.0079C85.4405 17.1466 85.8352 17.2799 86.2619 17.4079C86.6885 17.5359 87.1152 17.6799 87.5419 17.8399C87.9685 17.9892 88.3579 18.1866 88.7099 18.4319C89.0725 18.6772 89.3605 18.9919 89.5739 19.3759C89.7872 19.7599 89.8939 20.2399 89.8939 20.8159C89.8939 21.5092 89.7072 22.1012 89.3339 22.5919C88.9605 23.0826 88.4485 23.4612 87.7979 23.7279C87.1579 23.9946 86.4272 24.1279 85.6059 24.1279C85.0085 24.1279 84.4219 24.0532 83.8459 23.9039C83.2805 23.7439 82.7419 23.5306 82.2299 23.2639C81.7285 22.9972 81.2752 22.6879 80.8699 22.3359L81.7659 20.5919C82.1499 20.9439 82.5659 21.2479 83.0139 21.5039C83.4619 21.7492 83.9099 21.9412 84.3579 22.0799C84.8165 22.2079 85.2432 22.2719 85.6379 22.2719C86.2459 22.2719 86.7152 22.1546 87.0459 21.9199C87.3872 21.6852 87.5579 21.3546 87.5579 20.9279C87.5579 20.5759 87.4459 20.2932 87.2219 20.0799C87.0085 19.8666 86.7259 19.6906 86.3739 19.5519C86.0219 19.4026 85.6272 19.2746 85.1899 19.1679C84.7632 19.0506 84.3365 18.9172 83.9099 18.7679C83.4832 18.6079 83.0885 18.4106 82.7259 18.1759C82.3739 17.9306 82.0859 17.6212 81.8619 17.2479C81.6485 16.8746 81.5419 16.3999 81.5419 15.8239C81.5419 15.1732 81.7179 14.6132 82.0699 14.1439C82.4219 13.6639 82.9072 13.2959 83.5259 13.0399C84.1552 12.7732 84.8912 12.6399 85.7339 12.6399C86.4805 12.6399 87.2059 12.7466 87.9099 12.9599C88.6245 13.1732 89.2485 13.4559 89.7819 13.8079L88.9179 15.5679Z" fill="#111111"/>
<path d="M70.7437 12.8H79.8797V14.608H76.3917V24H74.2317V14.608H70.7437V12.8Z" fill="#111111"/>
<path d="M64.2351 12.8H66.4271L71.2751 24H68.9871L65.2591 14.96L61.5471 24H59.3071L64.2351 12.8ZM61.8831 19.808H68.5551V21.552H61.8831V19.808Z" fill="#111111"/>
<path d="M50.7053 12.8H59.8413V14.608H56.3533V24H54.1933V14.608H50.7053V12.8Z" fill="#111111"/>
<path d="M48.4665 15.5679C48.0718 15.3226 47.6665 15.1199 47.2505 14.9599C46.8451 14.7999 46.4611 14.6879 46.0985 14.6239C45.7358 14.5492 45.4051 14.5119 45.1065 14.5119C44.6051 14.5119 44.1998 14.6079 43.8905 14.7999C43.5918 14.9919 43.4425 15.2746 43.4425 15.6479C43.4425 15.9892 43.5491 16.2666 43.7625 16.4799C43.9865 16.6932 44.2745 16.8692 44.6265 17.0079C44.9891 17.1466 45.3838 17.2799 45.8105 17.4079C46.2371 17.5359 46.6638 17.6799 47.0905 17.8399C47.5171 17.9892 47.9065 18.1866 48.2585 18.4319C48.6211 18.6772 48.9091 18.9919 49.1225 19.3759C49.3358 19.7599 49.4425 20.2399 49.4425 20.8159C49.4425 21.5092 49.2558 22.1012 48.8825 22.5919C48.5091 23.0826 47.9971 23.4612 47.3465 23.7279C46.7065 23.9946 45.9758 24.1279 45.1545 24.1279C44.5571 24.1279 43.9705 24.0532 43.3945 23.9039C42.8291 23.7439 42.2905 23.5306 41.7785 23.2639C41.2771 22.9972 40.8238 22.6879 40.4185 22.3359L41.3145 20.5919C41.6985 20.9439 42.1145 21.2479 42.5625 21.5039C43.0105 21.7492 43.4585 21.9412 43.9065 22.0799C44.3651 22.2079 44.7918 22.2719 45.1865 22.2719C45.7945 22.2719 46.2638 22.1546 46.5945 21.9199C46.9358 21.6852 47.1065 21.3546 47.1065 20.9279C47.1065 20.5759 46.9945 20.2932 46.7705 20.0799C46.5571 19.8666 46.2745 19.6906 45.9225 19.5519C45.5705 19.4026 45.1758 19.2746 44.7385 19.1679C44.3118 19.0506 43.8851 18.9172 43.4585 18.7679C43.0318 18.6079 42.6371 18.4106 42.2745 18.1759C41.9225 17.9306 41.6345 17.6212 41.4105 17.2479C41.1971 16.8746 41.0905 16.3999 41.0905 15.8239C41.0905 15.1732 41.2665 14.6132 41.6185 14.1439C41.9705 13.6639 42.4558 13.2959 43.0745 13.0399C43.7038 12.7732 44.4398 12.6399 45.2825 12.6399C46.0291 12.6399 46.7545 12.7466 47.4585 12.9599C48.1731 13.1732 48.7971 13.4559 49.3305 13.8079L48.4665 15.5679Z" fill="#111111"/>
</svg>
